<svg width="24" height="24" viewBox="0 0 24 24" fill="none" xmlns="http://www.w3.org/2000/svg">
<path fill-rule="evenodd" clip-rule="evenodd" d="M17.6445 18.7061L22.4688 23.5303L23.5312 22.4697L1.53125 0.469727L0.46875 1.53027L4.99609 6.05566C2.85156 7.43066 1.125 9.41895 0.046875 11.7783C0.0195312 11.8418 0.00390625 11.9111 0 11.9805L0.0078125 12.0967C0.015625 12.1396 0.0273438 12.1816 0.046875 12.2217C2.14453 16.8164 6.70703 20 12 20C14.0195 20 15.9336 19.5361 17.6445 18.7061ZM15.3086 16.3682L13.8945 14.957C13.3516 15.3203 12.7031 15.5322 12.0039 15.5322C10.0898 15.5322 8.53906 13.9502 8.53906 11.999C8.53906 11.3115 8.73438 10.6699 9.06641 10.127L7.65234 8.71484C6.98438 9.63281 6.58984 10.7695 6.58984 12.001C6.58984 13.7822 7.41797 15.3672 8.69922 16.376C9.61328 17.0938 10.7578 17.5205 12 17.5205C12.9961 17.5205 13.9258 17.2461 14.7266 16.7686C14.9297 16.6475 15.125 16.5137 15.3086 16.3682Z" fill="#999999"/>
<path d="M11.6641 8.48242L15.4531 12.2725L15.4648 11.999C15.4648 10.0479 13.9141 8.46582 12.0039 8.46582L11.6641 8.48242Z" fill="#999999"/>
<path d="M17.207 13.5098L17.082 13.9004L20.2344 17.0518C21.8086 15.7627 23.0898 14.1113 23.9531 12.2217C24.0156 12.083 24.0156 11.9199 23.9531 11.7783C21.8555 7.18359 17.293 4 12 4C11.2773 4 10.5664 4.05957 9.87109 4.17383C9.17969 4.28809 8.50781 4.45703 7.85938 4.67676L10.0391 6.85645C10.6484 6.61523 11.3086 6.48242 12 6.48242C14.9883 6.48242 17.4102 8.9541 17.4102 12.001C17.4102 12.5244 17.3398 13.0303 17.207 13.5098Z" fill="#999999"/>
</svg>
